<?xml version="1.0" encoding="utf-8"?>
<svg version="1.1" xmlns:xlink="http://www.w3.org/1999/xlink" width="100px" height="100px" xmlns="http://www.w3.org/2000/svg">
  <g transform="matrix(1 0 0 1 -29 -77 )">
    <path d="M 56.7057291666667 68.2942708333333  C 57.0963541666667 68.6848958333333  57.2916666666667 69.1840277777778  57 69.7916666666667  L 57 80.2083333333333  C 57.2916666666667 80.8159722222222  57.0963541666667 81.3151041666667  56.7057291666667 81.7057291666667  C 56.3151041666667 82.0963541666667  55.8159722222222 82.2916666666667  55.2083333333333 82  L 44.7916666666667 82  C 44.1840277777778 82.2916666666667  43.6848958333333 82.0963541666667  43.2942708333333 81.7057291666667  C 42.9036458333333 81.3151041666667  42.7083333333333 80.8159722222222  43 80.2083333333333  L 43 69.7916666666667  C 42.7083333333333 69.1840277777778  42.9036458333333 68.6848958333333  43.2942708333333 68.2942708333333  C 43.6848958333333 67.9036458333333  44.1840277777778 67.7083333333333  44.7916666666667 67  L 55.2083333333333 67  C 55.8159722222222 67.7083333333333  56.3151041666667 67.9036458333333  56.7057291666667 68.2942708333333  Z M 66.8294270833333 23.53515625  C 71.58203125 27.4197048611111  73.9583333333333 32.0746527777778  73.9583333333333 37.5  C 73.9583333333333 39.6701388888889  73.6328125 41.6232638888889  72.9817708333333 43.359375  C 72.3307291666667 45.0954861111111  71.3433159722222 46.5928819444444  70.01953125 47.8515625  C 68.6957465277778 49.1102430555556  67.5672743055556 50.0651041666667  66.6341145833333 50.7161458333333  C 65.7009548611111 51.3671875  64.4097222222222 52.1484375  62.7604166666667 53.0598958333333  C 61.3715277777778 53.8411458333333  60.3624131944445 54.4487847222222  59.7330729166667 54.8828125  C 59.1037326388889 55.3168402777778  58.5394965277778 55.8376736111111  58.0403645833333 56.4453125  C 57.5412326388889 57.0529513888889  57.2916666666667 57.6822916666667  57.2916666666667 58.3333333333333  L 57.2916666666667 60.4166666666667  C 57.2916666666667 61.0243055555556  57.0963541666667 61.5234375  56.7057291666667 61.9140625  C 56.3151041666667 62.3046875  55.8159722222222 62.5  55.2083333333333 62  L 44.7916666666667 62  C 44.1840277777778 62.5  43.6848958333333 62.3046875  43.2942708333333 61.9140625  C 42.9036458333333 61.5234375  42.7083333333333 61.0243055555556  42.7083333333333 60.4166666666667  L 42.7083333333333 55.9895833333333  C 42.7083333333333 54.4704861111111  42.9361979166667 53.0707465277778  43.3919270833333 51.7903645833333  C 43.84765625 50.5099826388889  44.3684895833333 49.4791666666667  44.9544270833333 48.6979166666667  C 45.5403645833333 47.9166666666667  46.38671875 47.1462673611111  47.4934895833333 46.38671875  C 48.6002604166667 45.6271701388889  49.4900173611111 45.0737847222222  50.1627604166667 44.7265625  C 50.8355034722222 44.3793402777778  51.8012152777778 43.9236111111111  53.0598958333333 43.359375  C 55.3602430555556 42.2743055555556  56.9878472222222 41.3411458333333  57.9427083333333 40.5598958333333  C 58.8975694444445 39.7786458333333  59.375 38.7152777777778  59.375 37.3697916666667  C 59.375 35.546875  58.4309895833333 33.9952256944444  56.54296875 32.71484375  C 54.6549479166667 31.4344618055555  52.5824652777778 30.7942708333333  50.3255208333333 30.7942708333333  C 47.8949652777778 30.7942708333333  45.8333333333333 31.3802083333333  44.140625 32.5520833333333  C 42.8819444444445 33.4201388888889  41.1458333333333 35.2213541666667  38.9322916666667 37.9557291666667  C 38.5416666666667 38.4765625  37.9991319444445 38.7369791666667  37.3046875 38.7369791666667  C 36.8272569444445 38.7369791666667  36.4149305555556 38.6067708333333  36.0677083333333 38.3463541666667  L 29.0364583333333 33.0078125  C 28.6024305555556 32.7039930555556  28.3420138888889 32.2699652777778  28.2552083333333 31.7057291666667  C 28.1684027777778 31.1414930555555  28.2769097222222 30.6423611111111  28.5807291666667 30.2083333333333  C 33.8758680555556 21.875  41.4496527777778 17.7083333333333  51.3020833333333 17.7083333333333  C 56.9010416666667 17.7083333333333  62.0768229166667 19.6506076388889  66.8294270833333 23.53515625  Z M 66.1783854166667 11.6536458333333  C 61.03515625 9.44010416666666  55.6423611111111 8.33333333333334  50 8.33333333333334  C 44.3576388888889 8.33333333333334  38.96484375 9.44010416666666  33.8216145833333 11.6536458333333  C 28.6783854166667 13.8671875  24.2513020833333 16.8294270833333  20.5403645833333 20.5403645833333  C 16.8294270833333 24.2513020833333  13.8671875 28.6783854166667  11.6536458333333 33.8216145833333  C 9.44010416666667 38.96484375  8.33333333333333 44.3576388888889  8.33333333333333 50  C 8.33333333333333 55.6423611111111  9.44010416666667 61.03515625  11.6536458333333 66.1783854166667  C 13.8671875 71.3216145833333  16.8294270833333 75.7486979166667  20.5403645833333 79.4596354166667  C 24.2513020833333 83.1705729166667  28.6783854166667 86.1328125  33.8216145833333 88.3463541666667  C 38.96484375 90.5598958333333  44.3576388888889 91.6666666666667  50 91.6666666666667  C 55.6423611111111 91.6666666666667  61.03515625 90.5598958333333  66.1783854166667 88.3463541666667  C 71.3216145833333 86.1328125  75.7486979166667 83.1705729166667  79.4596354166667 79.4596354166667  C 83.1705729166667 75.7486979166667  86.1328125 71.3216145833333  88.3463541666667 66.1783854166667  C 90.5598958333333 61.03515625  91.6666666666667 55.6423611111111  91.6666666666667 50  C 91.6666666666667 44.3576388888889  90.5598958333333 38.96484375  88.3463541666667 33.8216145833333  C 86.1328125 28.6783854166667  83.1705729166667 24.2513020833333  79.4596354166667 20.5403645833333  C 75.7486979166667 16.8294270833333  71.3216145833333 13.8671875  66.1783854166667 11.6536458333333  Z M 93.2942708333333 24.90234375  C 97.7647569444444 32.5629340277778  100 40.9288194444444  100 50  C 100 59.0711805555556  97.7647569444444 67.4370659722222  93.2942708333333 75.09765625  C 88.8237847222222 82.7582465277778  82.7582465277778 88.8237847222222  75.09765625 93.2942708333333  C 67.4370659722222 97.7647569444445  59.0711805555556 100  50 100  C 40.9288194444445 100  32.5629340277778 97.7647569444445  24.90234375 93.2942708333333  C 17.2417534722222 88.8237847222222  11.1762152777778 82.7582465277778  6.70572916666667 75.09765625  C 2.23524305555556 67.4370659722222  0 59.0711805555556  0 50  C 0 40.9288194444444  2.23524305555556 32.5629340277778  6.70572916666667 24.90234375  C 11.1762152777778 17.2417534722222  17.2417534722222 11.1762152777778  24.90234375 6.70572916666666  C 32.5629340277778 2.23524305555555  40.9288194444445 0  50 0  C 59.0711805555556 0  67.4370659722222 2.23524305555555  75.09765625 6.70572916666666  C 82.7582465277778 11.1762152777778  88.8237847222222 17.2417534722222  93.2942708333333 24.90234375  Z " fill-rule="nonzero" fill="#ff0000" stroke="none" transform="matrix(1 0 0 1 29 77 )" />
  </g>
</svg>